<svg xmlns="http://www.w3.org/2000/svg" viewBox="0 0 126.5 126.5"><g fill="#949393"><path d="M125.1 50c-17.4.3-23.6 2.2-34.5 13.2 10.9 11 17.2 12.9 34.5 13.2.9-4.3 1.4-8.7 1.4-13.2s-.5-8.9-1.4-13.2M26.6 89.7c11.2 0 19.2 0 28.5-4.5C37 69 19.2 67.6 13.8 67.6H.1c.5 7.9 2.5 15.3 5.7 22.2h20.8zm28.5-48.4c-9.3-4.5-17.3-4.5-28.5-4.5H5.8A64.9 64.9 0 0 0 .1 58.9h13.6c5.5 0 23.3-1.4 41.4-17.6"/><path d="M103 79.5c-5.8-2.2-10.5-6.2-16.4-12.1-.7.7-1.3 1.5-2 2.2-5.7 6.3-11.4 11.5-17.2 15.5l.3.3c7 7.7 12.3 12.7 18.7 15.3 6.1 2.5 13.2 3 25.1 3.1h.3c5.2-6.2 9.3-13.5 11.8-21.5-8.5-.1-14.8-.6-20.6-2.8M67.7 41l-.3.3c5.8 4.1 11.5 9.2 17.2 15.5.7.8 1.4 1.5 2 2.2 6-5.9 10.6-9.9 16.4-12.1 5.7-2.2 12.1-2.8 20.5-3a63.1 63.1 0 0 0-11.8-21.4h-.3c-11.8.1-19 .6-25.1 3.1C80 28.3 74.7 33.3 67.7 41m12.5 24.6 2.4-2.4-2.4-2.4c-6.7-6.7-12.3-11.5-17.3-15-9.3 9-18.7 14.3-26.9 17.4 8.2 3.1 17.6 8.4 26.9 17.3 5-3.4 10.6-8.2 17.3-14.9m22.7 46.7c-7.3-.3-12.5-1.1-16.9-2.5-8.1-2.6-14.8-7.6-24.7-18.5-.5-.5-.9-1-1.4-1.5l-3.6 1.8c-8.8 4.1-20.4 4.1-29.7 4.1H9a63.35 63.35 0 0 0 54.3 30.8c15.1 0 29-5.3 39.9-14.2zM26.6 30.7c9.3 0 20.9 0 29.7 4.1l3.6 1.8c.5-.5.9-1 1.4-1.5C71.2 24.3 77.8 19.3 86 16.7c4.4-1.4 9.6-2.2 16.9-2.5h.3A62.6 62.6 0 0 0 63.4 0C40.3 0 20.1 12.3 9 30.7z"/></g><path fill="#8a0d04" d="M55.1 85.2c2.5-1.2 5-2.7 7.8-4.6A81.76 81.76 0 0 0 36 63.2c9.6-3.7 20.8-10.3 31.7-22.3 7-7.7 12.3-12.7 18.7-15.3 6.1-2.5 13.2-3 25.1-3.1h.3c-2.6-3.1-5.5-5.9-8.6-8.5h-.3c-7.3.3-12.5 1.1-16.9 2.5-8.1 2.6-14.8 7.6-24.7 18.5-20 22-41.4 23.7-47.5 23.7H.1C0 60.3 0 61.8 0 63.2c0 1.5 0 2.9.1 4.3h13.6c5.5.1 23.3 1.5 41.4 17.7m56.6 18.7h-.3c-11.8-.1-19-.6-25.1-3.1-6.4-2.6-11.7-7.6-18.7-15.3l-.3-.3c-2.5 1.8-5 3.3-7.5 4.7.5.5.9 1 1.4 1.5 9.9 10.9 16.6 15.9 24.7 18.5 4.4 1.4 9.6 2.2 16.9 2.5h.3c3.1-2.6 6-5.4 8.6-8.5"/><path fill="#fff" d="M55.1 41.3c1.6-1.4 3.2-3 4.7-4.6l-3.6-1.8c-8.8-4.1-20.4-4.1-29.7-4.1H9a57 57 0 0 0-3.2 6h20.8c11.2-.1 19.2-.1 28.5 4.5m35.5 21.9c11-11 17.2-12.9 34.5-13.2-.4-2-1-4-1.6-6-8.4.2-14.8.8-20.5 2.9-5.8 2.2-10.5 6.2-16.4 12.1-.7-.7-1.3-1.5-2-2.2-5.7-6.3-11.4-11.5-17.2-15.5-1.5 1.6-3 3.1-4.5 4.6 5 3.5 10.6 8.3 17.3 15l2.4 2.4-2.4 2.4c-24.2 24-34 24-53.6 24H5.8c1 2.1 2 4.1 3.2 6h17.6c9.3 0 20.9 0 29.7-4.1 9.7-4.5 18.9-11.7 28.3-22 .7-.8 1.4-1.5 2-2.2 6 5.9 10.6 9.9 16.4 12.1 5.7 2.2 12.1 2.8 20.5 2.9.6-1.9 1.2-3.9 1.6-6-17.3-.3-23.6-2.1-34.5-13.2"/></svg>
