<svg xmlns="http://www.w3.org/2000/svg" viewBox="0 0 76.72 77.3"><path fill="#ffdb4f" d="M39 35.8c-1.6-1.6-4.1-1.6-5.7 0s-1.6 4.1 0 5.7 4.1 1.6 5.7 0 1.6-4.1 0-5.7m9.1 8.2a4.7 4.7 0 0 0-6.6 0 4.7 4.7 0 0 0 0 6.6 4.7 4.7 0 0 0 6.6 0 4.7 4.7 0 0 0 0-6.6m9.1 8.2c-2-2-5.4-2-7.4 0-2 2.1-2 5.4 0 7.4 2.1 2.1 5.4 2.1 7.4 0 2.1-2 2.1-5.3 0-7.4M39 70.4c-1.6-1.6-4.1-1.6-5.7 0s-1.6 4.1 0 5.7 4.1 1.6 5.7 0 1.6-4.1 0-5.7m0-17.3c-1.6-1.6-4.1-1.6-5.7 0s-1.6 4.1 0 5.7 4.1 1.6 5.7 0 1.6-4.1 0-5.7m0-34.6c-1.6-1.6-4.1-1.6-5.7 0s-1.6 4.1 0 5.7 4.1 1.6 5.7 0 1.6-4.1 0-5.7m0-17.3c-1.6-1.6-4.1-1.6-5.7 0s-1.6 4.1 0 5.7 4.1 1.6 5.7 0 1.6-4.2 0-5.7m9.1 8.2a4.7 4.7 0 0 0-6.6 0 4.7 4.7 0 0 0 0 6.6 4.7 4.7 0 0 0 6.6 0 4.7 4.7 0 0 0 0-6.6m0 17.3a4.7 4.7 0 0 0-6.6 0 4.7 4.7 0 0 0 0 6.6 4.7 4.7 0 0 0 6.6 0 4.7 4.7 0 0 0 0-6.6m0 34.6a4.7 4.7 0 0 0-6.6 0 4.7 4.7 0 0 0 0 6.6 4.7 4.7 0 0 0 6.6 0 4.7 4.7 0 0 0 0-6.6m9.1-26.4c-2-2.1-5.4-2.1-7.4 0-2 2-2 5.4 0 7.4 2.1 2 5.4 2 7.4 0 2.1-2 2.1-5.3 0-7.4m0-17.3c-2-2-5.4-2-7.4 0-2 2.1-2 5.4 0 7.4 2.1 2.1 5.4 2.1 7.4 0 2.1-2 2.1-5.3 0-7.4m8.9 8.5c-2.2-2.2-5.7-2.2-7.9 0s-2.2 5.7 0 7.9 5.7 2.2 7.9 0 2.2-5.8 0-7.9m0 17.3c-2.2-2.2-5.7-2.2-7.9 0s-2.2 5.7 0 7.9 5.7 2.2 7.9 0 2.2-5.8 0-7.9m8.9-8.9c-2.3-2.3-6-2.3-8.3 0s-2.3 6 0 8.3 6 2.3 8.3 0 2.3-6 0-8.3m-54.2 2.2a2.72 2.72 0 0 0-3.9 0c-1.1 1.1-1.1 2.8 0 3.9s2.9 1.1 3.9 0c1.1-1.1 1.1-2.8 0-3.9m-19.3.4c.9 0 1.5.7 1.5 1.5 0 .9-.7 1.5-1.5 1.5-.9 0-1.5-.7-1.5-1.5s.7-1.5 1.5-1.5m10.2-8.6c-.8-.8-2.2-.8-3.1 0-.8.8-.8 2.2 0 3.1.8.8 2.2.8 3.1 0 .9-.9.9-2.3 0-3.1m0 17.3c-.8-.8-2.2-.8-3.1 0-.8.8-.8 2.2 0 3.1.8.8 2.2.8 3.1 0 .9-.9.9-2.3 0-3.1m9.1 8.2a2.72 2.72 0 0 0-3.9 0 2.72 2.72 0 0 0 0 3.9c1.1 1.1 2.9 1.1 3.9 0 1.1-1.1 1.1-2.8 0-3.9m0-34.6a2.72 2.72 0 0 0-3.9 0c-1.1 1.1-1.1 2.8 0 3.9s2.9 1.1 3.9 0c1.1-1.1 1.1-2.8 0-3.9m9.1-9.1c-1.3-1.3-3.5-1.3-4.8 0s-1.3 3.5 0 4.8 3.5 1.3 4.8 0 1.4-3.5 0-4.8m0 17.3c-1.3-1.3-3.5-1.3-4.8 0s-1.3 3.5 0 4.8 3.5 1.3 4.8 0c1.4-1.3 1.4-3.5 0-4.8m0 17.3c-1.3-1.3-3.5-1.3-4.8 0s-1.3 3.5 0 4.8 3.5 1.3 4.8 0c1.4-1.3 1.4-3.5 0-4.8m0 17.3c-1.3-1.3-3.5-1.3-4.8 0s-1.3 3.5 0 4.8 3.5 1.3 4.8 0c1.4-1.3 1.4-3.5 0-4.8"/></svg>