<?xml version="1.0" encoding="utf-8"?>
<!-- Generator: Adobe Illustrator 19.0.0, SVG Export Plug-In . SVG Version: 6.00 Build 0)  -->
<svg version="1.1" id="layer" xmlns="http://www.w3.org/2000/svg" xmlns:xlink="http://www.w3.org/1999/xlink" x="0px" y="0px"
	 viewBox="-153 -46 652 652" style="enable-background:new -153 -46 652 652;" xml:space="preserve">
<style type="text/css">
	.st0{fill:#005695;}
</style>
<path class="st0" d="M349.7,267c1,2.9,1,6,0.5,9c-0.5,3-1.5,5.8-2.9,8.5c-0.7,1.3-1.4,2.6-2.2,3.9c-0.9,1.4-2,2.4-3,3.5
	c-2.1,2.1-4.3,4-6.6,5.9l0,0l-1.3-2c2.7-1.3,5.3-2.3,8-3.3c2.7-0.9,5.4-1.7,8.2-2.5c5.5-1.5,11.1-2.6,16.7-3.4
	c11.2-1.7,22.6-2.4,33.9-2.4v2.4c-11.2,0-22.5,0.7-33.5,2.4c-5.5,0.9-11,2-16.5,3.4c-2.7,0.7-5.4,1.5-8,2.4
	c-2.6,0.9-5.3,1.9-7.7,3.1l0,0c-0.6,0.3-1.3,0-1.6-0.6c-0.3-0.5-0.1-1.2,0.4-1.5v0c2.3-1.7,4.6-3.5,6.8-5.4c1.1-1,2.1-1.9,2.9-3
	c0.8-1.2,1.6-2.4,2.4-3.6c1.4-2.5,2.6-5.2,3.2-8c0.6-2.8,0.8-5.8,0-8.6L349.7,267L349.7,267z M435.4,242.2
	c7.9,1.5,15.8,3.4,23.4,6.1c0.4,0.1,0.6,0.5,0.6,0.9v0l0,6.8c0,0.5-0.4,1-0.9,1c-0.1,0-0.2,0-0.3-0.1c-3.4-1.2-6.9-2.2-10.5-3.2
	l1.2-1l0,5.8l-0.7-1c3.6,1,7.1,2,10.6,3.2c0.4,0.1,0.7,0.5,0.7,1v0l0,7.3c0,0.6-0.5,1.1-1,1.1c-0.1,0-0.2,0-0.3-0.1l0,0h0
	c-9.2-3.2-18.7-5.4-28.2-6.9c-4.8-0.8-9.6-1.3-14.4-1.7c-4.8-0.4-9.7-0.6-14.5-0.6l-0.1-2.4c5,0,9.8,0.2,14.7,0.6
	c4.9,0.4,9.8,1,14.6,1.8c9.7,1.6,19.3,3.9,28.6,7.2v0l-1.4,1l0-7.3l0.7,1c-3.4-1.2-6.9-2.3-10.4-3.2l0,0c-0.4-0.1-0.7-0.5-0.7-1
	l0-5.8c0-0.5,0.4-1,1-1c0.1,0,0.2,0,0.3,0c3.6,1,7.1,2.1,10.6,3.3l-1.2,0.9l0-6.8l0.6,0.9c-7.5-2.7-15.3-4.7-23.1-6.3L435.4,242.2
	L435.4,242.2z M401,236.4c-5.8,0-11.6,0.2-17.4,0.6c-2.9,0.2-5.8,0.5-8.7,0.8c-2.9,0.3-5.8,0.7-8.6,1.2l0.7-1
	c0.5,4.2,0.8,8.3,1,12.5c0.2,4.2,0.3,8.3,0.3,12.5h-1c-0.1-4.1-0.3-8.3-0.7-12.4c-0.4-4.1-0.8-8.3-1.4-12.3c-0.1-0.5,0.3-0.9,0.7-1
	c2.9-0.5,5.8-0.9,8.7-1.3c2.9-0.3,5.8-0.6,8.7-0.8c5.8-0.4,11.7-0.7,17.5-0.7L401,236.4z"/>
<path class="st0" d="M401,234.4c5.8,0,11.7,0.2,17.5,0.7c2.9,0.2,5.8,0.5,8.7,0.8c2.9,0.3,5.8,0.7,8.7,1.3c0.5,0.1,0.8,0.5,0.7,1
	c-0.6,4.1-1,8.2-1.4,12.3c-0.4,4.1-0.6,8.3-0.7,12.4h-1c-0.1-4.2,0.1-8.3,0.3-12.5c0.2-4.2,0.6-8.3,1-12.5l0.7,1
	c-2.8-0.5-5.7-0.9-8.6-1.2c-2.9-0.3-5.8-0.6-8.7-0.8c-5.8-0.4-11.6-0.6-17.4-0.6L401,234.4L401,234.4z M366.9,243.8
	c-7.9,1.5-15.6,3.6-23.1,6.3l0.6-0.9l0,6.8l-1.2-0.9c3.5-1.2,7-2.3,10.6-3.3c0.5-0.1,1.1,0.2,1.2,0.7c0,0.1,0,0.2,0,0.3l0,5.8
	c0,0.5-0.3,0.9-0.7,1l0,0c-3.5,1-7,2-10.4,3.2l0.7-1l0,7.3l-1.4-1c9.3-3.3,18.9-5.6,28.6-7.2c4.8-0.8,9.7-1.4,14.6-1.8
	c4.9-0.4,9.8-0.7,14.7-0.6l-0.1,2.4c-4.8-0.1-9.7,0.2-14.5,0.6c-4.8,0.4-9.7,1-14.4,1.7c-9.6,1.5-19.1,3.8-28.2,6.9l0,0
	c-0.5,0.2-1.1-0.1-1.3-0.7c0-0.1-0.1-0.2-0.1-0.3l0-7.3v0c0-0.5,0.3-0.8,0.7-1c3.5-1.2,7-2.3,10.6-3.2l-0.7,1l0-5.8l1.2,1
	c-3.5,0.9-7,2-10.5,3.2c-0.5,0.2-1-0.1-1.2-0.6c0-0.1,0-0.2-0.1-0.3l0-6.8v0c0-0.4,0.3-0.8,0.6-0.9c7.7-2.6,15.5-4.6,23.4-6.1
	L366.9,243.8L366.9,243.8z"/>
<path class="st0" d="M415.8,245c-0.3,0-0.7,0-1,0c-0.5,0-1,0.6-1.1,1.2l-0.2,3.1c0,0.6,0.4,1.2,1,1.3c3.5,0.6,6.6,0.9,9.4,0.9
	c0.3,0,0.6,0,1,0c0.5,0,1.1-0.6,1.1-1.1l0.2-3.1c0-0.6-0.4-1.2-1-1.3C421.7,245.3,418.6,245,415.8,245z M423.9,253.5
	c-2.9,0-6.1-0.3-9.7-1c-1.5-0.3-2.7-1.7-2.6-3.3l0.2-3.1c0.1-1.6,1.4-2.9,2.9-3c0.4,0,0.7,0,1,0c2.9,0,6.2,0.3,9.8,1
	c1.6,0.3,2.6,1.8,2.5,3.4l-0.3,3.1c-0.1,1.6-1.5,2.9-3,2.9C424.6,253.5,424.2,253.5,423.9,253.5z M395.6,250.4
	c0.6,0.1,2.8,0.2,5,0.2l0.4,0l0.4,0c2.1,0,4.4-0.2,5-0.2l0.2,0c0.6-0.1,1.1-0.7,1.1-1.2l0.1-3.1c0-0.6-0.5-1.2-1-1.2l-0.2,0
	c-0.6-0.1-3.1-0.4-5.3-0.4l-0.2,0l-0.2,0c-2.2,0-4.7,0.3-5.4,0.4l-0.1,0c-0.6,0.1-1,0.7-1,1.2l0.1,3.1c0,0.6,0.6,1.2,1.1,1.2
	L395.6,250.4L395.6,250.4z M400.6,252.5c-3.2,0-4.6-0.1-5.3-0.3l0,0c-1.5-0.2-2.8-1.5-2.8-3.1l-0.1-3.1c-0.1-1.5,1.1-3,2.6-3.2
	l0,0.1c1.6-0.5,5.8-0.5,5.8-0.5l0.2,0l0.2,0c0,0,4.2,0.1,5.8,0.5l0-0.1c1.5,0.2,2.7,1.7,2.6,3.2l-0.1,3.1c-0.1,1.6-1.3,2.9-2.8,3.1
	l0,0c-0.7,0.2-2.1,0.3-5.3,0.3l-0.4,0L400.6,252.5L400.6,252.5z M401,278.1l0.3,0c1.7,0,3.4-0.1,4-0.2l0.2,0
	c0.6-0.1,1.1-0.6,1.1-1.2l0.3-8c0-0.6-0.5-1.2-1-1.2l-0.1,0c-0.5-0.1-2.6-0.3-4.6-0.3h-0.4c-1.9,0-3.9,0.2-4.5,0.3l-0.2,0
	c-0.6,0.1-1,0.7-1,1.2l0.3,8c0,0.6,0.6,1.2,1.1,1.2l0.2,0c0.6,0,2.4,0.2,4.1,0.2L401,278.1L401,278.1z M401.2,280.1l-0.3,0l-0.3,0
	c-2.6,0-3.9-0.1-4.5-0.2v0c-1.5-0.1-2.8-1.5-2.8-3.1l-0.3-8c-0.1-1.6,1.1-3,2.6-3.2l0,0.1c1.5-0.4,5-0.4,5-0.4l0.2,0l0.2,0
	c0,0,3.5,0,5,0.4l0-0.1c1.5,0.2,2.7,1.7,2.6,3.2l-0.3,8c-0.1,1.6-1.3,3-2.8,3.1l0,0C405.1,280,403.9,280.1,401.2,280.1z
	 M414.7,267.7c-0.4,0-0.8,0-1.1,0c-0.5,0-1,0.6-1.1,1.2l-0.4,8c0,0.6,0.4,1.2,1,1.3c3.4,0.6,6.6,0.9,9.6,0.8c0.5,0,1.1-0.6,1.1-1.2
	c0.2-2.7,0.4-5.4,0.6-8c0-0.6-0.4-1.2-1-1.3C420.5,267.9,417.5,267.7,414.7,267.7L414.7,267.7z M421.6,280.9c-2.8,0-5.8-0.3-8.9-0.8
	c-1.5-0.3-2.7-1.7-2.6-3.3l0.4-8c0.1-1.6,1.4-2.9,2.9-3c0.4,0,0.8,0,1.2,0c2.9,0,6,0.3,9.1,0.9c1.5,0.3,2.6,1.8,2.5,3.4
	c-0.2,2.6-0.4,5.3-0.6,8c-0.1,1.6-1.5,2.9-3,2.9C422.4,280.9,422,280.9,421.6,280.9L421.6,280.9z M387.2,267.7
	c-2.8,0-5.7,0.3-8.8,0.9c-0.5,0.1-1,0.7-1,1.3c0.2,2.6,0.4,5.3,0.6,8c0,0.6,0.6,1.2,1.1,1.2c0.4,0,0.7,0,1.1,0
	c2.7,0,5.6-0.3,8.6-0.8c0.6-0.1,1-0.7,1-1.3l-0.4-8c0-0.6-0.6-1.2-1.1-1.2C388,267.7,387.6,267.7,387.2,267.7L387.2,267.7z
	 M380.3,280.9c-0.4,0-0.7,0-1.1,0c-1.5,0-2.8-1.3-3-2.9c-0.2-2.7-0.4-5.4-0.6-8c-0.1-1.5,1-3,2.5-3.4c3.7-0.7,7.1-1,10.3-0.9
	c1.5,0.1,2.8,1.4,2.9,3l0.4,8c0.1,1.5-1.1,3-2.6,3.3C386.1,280.6,383.1,280.9,380.3,280.9z M386.2,245c-2.8,0-5.9,0.3-9.5,1
	c-0.5,0.1-1,0.7-0.9,1.3l0.2,3.1c0,0.6,0.6,1.1,1.1,1.1c0.3,0,0.6,0,1,0c2.8,0,5.9-0.3,9.4-0.9c0.6-0.1,1-0.7,1-1.3l-0.2-3.1
	c0-0.6-0.6-1.1-1.1-1.2C386.8,245,386.5,245,386.2,245L386.2,245z M378,253.5c-0.3,0-0.7,0-1,0c-1.5,0-2.8-1.3-3-2.9l-0.2-3.1
	c-0.1-1.5,1-3,2.5-3.4c4.1-0.8,7.6-1.1,10.9-1c1.5,0.1,2.8,1.4,2.9,3l0.2,3.1c0.1,1.5-1.1,3-2.6,3.3
	C384.1,253.1,380.9,253.5,378,253.5z M401,181.9c1.4-0.1,3.4,0.4,4.8,1.2c0.7,0.4,1.2,0.8,1.7,1.1c0.4,0.3,0.8,0.5,1.1,0.7
	c0.4,0.1,0.8,0.3,1.2,0.3c0.1,0,0.2,0,0.4,0c0,0,0.1,0,0,0l0.1,0l0.2,0l0.3,0l0.3,0c0.9,0,1.6-0.3,2.7-0.9c0.6-0.3,1.2-0.7,2-0.9
	c0.7-0.3,1.5-0.4,2.3-0.4c0.8,0,1.5,0,2.2,0.2c0.7,0.1,1.5,0.4,2.1,0.7c1.4,0.7,2.2,1.8,3.1,2.5c0.9,0.8,2,1.3,3.3,1.5
	c-1.2,0.3-2.6,0.1-3.9-0.4c-1.3-0.6-2.3-1.3-3.3-1.5c-0.5-0.1-1-0.1-1.5-0.1c-0.5,0-1.1,0.1-1.6,0.2c-1,0.3-1.6,0.7-2.6,1.5
	c-0.5,0.4-1.1,0.8-1.8,1.2c-0.7,0.4-1.5,0.7-2.3,0.8c-0.2,0-0.4,0.1-0.6,0.1l-0.6,0.1l-0.2,0l-0.1,0l-0.2,0c-0.2,0-0.4,0-0.6,0
	c-0.8,0-1.6-0.1-2.4-0.4c-0.8-0.2-1.6-0.6-2.3-1c-0.6-0.4-1.1-0.7-1.5-0.9c-0.8-0.4-1.4-0.5-2.4-0.6
	C400.9,187.2,401,181.9,401,181.9z M401,192.6c0.3,0,1,0,1.5,0.1c0.5,0.1,1.1,0.2,1.7,0.4c1.1,0.4,2.1,1.1,2.7,1.6
	c0.7,0.5,1.1,0.9,1.6,1.1c0.5,0.3,1.1,0.4,1.7,0.5c1.5,0.2,2.5,0.1,4.1-0.6c0.8-0.3,1.7-0.7,2.6-0.8c0.9-0.1,1.8,0,2.7,0.2
	c-0.8,0.3-1.6,0.5-2.3,1c-0.7,0.4-1.2,0.9-1.8,1.5c-0.6,0.6-1.4,1.2-2.3,1.7c-0.5,0.2-1,0.4-1.5,0.5c-0.5,0.1-1.1,0.2-1.4,0.3
	c-1.1,0.1-2.1,0.1-3.2-0.2c-1.1-0.3-2.1-0.8-2.8-1.2c-0.7-0.4-1.2-0.6-1.7-0.8c-0.2-0.1-0.5-0.1-0.8-0.2c-0.3,0-0.4-0.1-0.9-0.1
	L401,192.6L401,192.6z"/>
<path class="st0" d="M400.6,217.6c-0.4,0-0.7-0.3-0.7-0.7V179c0-0.4,0.3-0.7,0.7-0.7c0.4,0,0.7,0.3,0.7,0.7v37.9
	C401.3,217.3,401,217.6,400.6,217.6z"/>
<path class="st0" d="M-106.4,193.6h-0.2V239h-10.3v-60h15.6l18.5,44.5l18.9-44.5h15.3v60h-10.3v-45.5h-0.2l-19,45.5h-9.2
	L-106.4,193.6z M-35.6,179h53.3v10.1H-24v13.9h35.9v10.1H-24V229h42.7V239h-54.3V179z M64.7,205.7c9.5,0,14.3-1.4,14.3-8.5
	c0-7-4.8-8.4-14.3-8.4H42.3v16.9H64.7z M30.7,179h35.7c14.1,0,24.2,3.2,24.2,17.9c0,11.1-7.8,17.2-16.6,17.7L92.3,239H78l-17.2-23.6
	H42.3V239H30.7C30.7,239,30.7,179,30.7,179z M148.3,197.3c-1.9-5.4-6.7-10-20.8-10c-7.8,0-15.8,2-15.8,7.5c0,2.6,1.5,5.3,13.3,6.8
	l14.1,2.1c13.3,2.1,21.2,7.3,21.2,17.3c0,14.2-13.4,19.5-29.2,19.5c-25.5,0-31.7-12.7-33.1-17.2l11.2-3.5
	c2.1,4.4,6.5,10.7,22.2,10.7c9.5,0,17.3-3.1,17.3-8.3c0-3.9-4.4-6.4-12.9-7.5l-14.2-2c-13.7-1.9-21.4-7.9-21.4-17.1
	c0-18,23.1-18,27.7-18c25.6,0,30,12,31.5,16.1C159.3,193.6,148.3,197.3,148.3,197.3z M170.7,179H224v10.1h-41.7v13.9h35.9v10.1
	h-35.9V229H225V239h-54.3V179z M261.9,215l-29-36h14.2l20.6,25.4l20.5-25.4h14.3l-29,36v24h-11.6L261.9,215L261.9,215z
	 M-116.7,252.2h54.1v10.1h-42.6v13.9h36.6v10.1h-36.6v25.9h-11.5V252.2z M-52.1,252.2H0.7v10.1h-41.3v13.9h35.5v10.1h-35.5v15.8H1.6
	v10.1h-53.7V252.2z M46.2,278.8c9.4,0,14.2-1.4,14.2-8.5c0-7-4.8-8.4-14.2-8.4H24v16.9H46.2z M12.5,252.2h35.4
	c13.9,0,23.9,3.2,23.9,17.9c0,11.1-7.8,17.2-16.4,17.7l18,24.4H59.3l-17.1-23.6H24v23.6H12.5C12.5,312.2,12.5,252.2,12.5,252.2z
	 M117,278.8c9.4,0,14.2-1.4,14.2-8.5c0-7-4.8-8.4-14.2-8.4H94.9v16.9H117z M83.4,252.2h35.4c13.9,0,23.9,3.2,23.9,17.9
	c0,11.1-7.8,17.2-16.4,17.7l18,24.4h-14.2l-17.1-23.6H94.9v23.6H83.4C83.4,312.2,83.4,252.2,83.4,252.2z M167.6,252.2h-11.5v60h11.5
	V252.2z M181.1,252.2h52.7v10.1h-41.3v13.9h35.5v10.1h-35.5v15.8h42.2v10.1h-53.7V252.2z M290.4,270.4c-1.9-5.4-6.6-10-20.6-10
	c-7.8,0-15.6,2-15.6,7.5c0,2.6,1.5,5.3,13.2,6.8l13.9,2.1c13.2,2.1,21,7.3,21,17.3c0,14.2-13.3,19.5-29,19.5
	c-25.2,0-31.4-12.7-32.8-17.2l11.1-3.5c2.1,4.4,6.5,10.7,22,10.7c9.4,0,17.2-3.1,17.2-8.3c0-3.9-4.4-6.4-12.8-7.5l-14.1-2
	c-13.6-1.9-21.2-7.9-21.2-17.1c0-18,22.9-18,27.4-18c25.3,0,29.7,12,31.1,16.1L290.4,270.4L290.4,270.4z M329.8,322.2
	c2.3,7.6,6.9,14.1,12.3,19.6c5.4,5.5,11.7,10.1,18.3,14.1c6.6,4,13.4,7.5,20.5,10.5c7,3,14.3,5.8,21.5,7.9h0l-1.8,0.1
	c7.4-3.2,14.6-6.8,21.6-10.9c7-4.1,13.6-8.7,19.8-13.9c6.2-5.2,11.9-10.9,16.7-17.4c2.4-3.2,4.6-6.6,6.4-10.2
	c0.9-1.8,1.7-3.6,2.5-5.4c0.4-0.9,0.7-1.9,1-2.8c0.3-0.9,0.6-1.9,0.7-2.7l0,0l1,2.2c-2.6-1.4-5.5-2.6-8.4-3.7
	c-2.9-1.1-5.8-2.1-8.8-3.1c-5.9-1.8-12-3.3-18.1-4.5c-6.1-1.2-12.3-2.1-18.5-2.7c-6.2-0.6-12.5-1.1-18.6-1c-12.4,0.3-24.8,2.4-37,5
	c-12.3,2.7-24.4,6-36.5,9.5c-12.1,3.5-24.2,7.2-36.5,10.3c-6.1,1.6-12.3,3-18.6,4.1l-1.2,0.2l-0.1,0c-0.1,0,0,0,0,0l-0.3,0.1
	l-0.6,0.1l-2.3,0.5c-1.6,0.3-3.1,0.6-4.7,0.8c-3.1,0.5-6.3,1-9.4,1.4c-25.1,3.4-50.3,4.8-75.6,5.2c-25.2,0.4-50.5-0.5-75.7-2.3
	c-12.6-0.9-25.2-2-37.7-3.4c-12.5-1.3-25.1-2.5-37.6-3.4c-25.1-1.8-50.3-2.9-75.4-2.2c-12.6,0.4-25.1,1.2-37.6,2.9
	c-6.2,0.8-12.4,1.9-18.6,3c-6.2,1.1-12.3,2.4-18.5,3.6c-0.1,0-0.3-0.1-0.3-0.2c0-0.1,0-0.3,0.2-0.3c11.9-4.3,24.4-6.9,36.9-8.5
	c12.5-1.7,25.2-2.6,37.8-3c25.3-0.8,50.5,0.2,75.7,1.9c12.6,0.9,25.2,2,37.7,3.3c12.5,1.3,25.1,2.4,37.6,3.3
	c25.1,1.7,50.3,2.5,75.4,2c25.1-0.5,50.3-2,75.2-5.4c3.1-0.4,6.2-0.9,9.3-1.4c1.5-0.3,3.1-0.5,4.6-0.8l2.3-0.4l0.6-0.1l0.3-0.1
	l0.4-0.1l1.1-0.2c6.1-1,12.2-2.5,18.3-4.1c12.1-3.2,24.2-6.9,36.3-10.4c12.1-3.5,24.3-6.9,36.7-9.7c12.4-2.7,25-4.9,37.8-5.2
	c6.4-0.2,12.8,0.3,19.1,0.9c6.3,0.6,12.6,1.5,18.9,2.7c6.3,1.2,12.5,2.7,18.6,4.6c3.1,0.9,6.1,2,9.1,3.1c3,1.2,5.9,2.4,8.9,4
	l1.3,0.7l-0.2,1.5l0,0c-0.2,1.3-0.5,2.3-0.8,3.3c-0.3,1.1-0.7,2.1-1,3.1c-0.8,2-1.6,4-2.6,5.9c-1.9,3.8-4.2,7.4-6.7,10.9
	c-5,6.9-10.9,12.9-17.2,18.4c-6.4,5.4-13.2,10.2-20.3,14.5c-7.1,4.3-14.5,8.1-22,11.5l-0.9,0.4l-0.9-0.3l0,0
	c-7.5-2.7-14.6-5.8-21.6-9.4c-7-3.5-13.8-7.5-20.3-11.9c-6.4-4.5-12.6-9.5-17.8-15.4C336,336.8,331.7,329.9,329.8,322.2L329.8,322.2
	z M412.8,235.4c-0.2-2.2,0-4.4,0.1-6.5c0.1-2.1,0.1-4.2-1.1-5.3c-1.2-1.1-3.2-1.6-5.2-1.8c-2-0.2-4.1-0.3-6.1-0.3
	c-2.1,0-4.1,0.1-6.1,0.3c-2,0.2-4,0.7-5.1,1.8c-1.1,1.1-1.2,3.2-1.1,5.3c0.1,2.1,0.3,4.3,0.1,6.5h-0.9c-0.2-2.1-0.5-4.2-0.8-6.3
	c-0.1-1.1-0.2-2.2-0.2-3.4c0.1-1.2,0.5-2.5,1.4-3.5c0.9-1,2-1.6,3.1-2c1.1-0.4,2.2-0.6,3.3-0.8c2.2-0.3,4.3-0.4,6.4-0.4
	c2.1,0,4.3,0.1,6.4,0.4c1.1,0.2,2.2,0.4,3.3,0.8c1.1,0.4,2.2,1,3.1,2c0.9,1,1.3,2.3,1.4,3.5c0.1,1.2,0,2.3-0.2,3.4
	c-0.3,2.1-0.6,4.2-0.8,6.3L412.8,235.4L412.8,235.4z M452.7,267.2c-0.8,2.8-0.6,5.8,0,8.6c0.6,2.8,1.8,5.5,3.2,8
	c0.7,1.3,1.5,2.5,2.4,3.6c0.8,1.1,1.9,2,2.9,3c2.2,1.9,4.5,3.7,6.8,5.4l0,0c0.5,0.4,0.6,1.2,0.2,1.7c-0.3,0.5-1,0.6-1.5,0.4l0,0
	c-2.4-1.2-5.1-2.2-7.7-3.1c-2.6-0.9-5.3-1.7-8-2.4c-5.4-1.4-10.9-2.5-16.5-3.4c-11.1-1.7-22.3-2.4-33.5-2.4v-2.4
	c11.3,0,22.7,0.7,33.9,2.4c5.6,0.9,11.2,2,16.7,3.4c2.8,0.7,5.5,1.5,8.2,2.5c2.7,0.9,5.4,1.9,8,3.3l-1.3,2v0
	c-2.3-1.9-4.5-3.8-6.6-5.9c-1.1-1.1-2.1-2.1-3-3.5c-0.8-1.3-1.6-2.6-2.2-3.9c-1.3-2.7-2.4-5.6-2.9-8.5c-0.5-3-0.5-6.1,0.5-9
	L452.7,267.2L452.7,267.2z M398.7,219.4l0.2-2.7l0.2-2.7c0-0.4,0.2-0.7,0.5-0.9c0.3-0.2,0.6-0.4,1-0.3c0.3,0,0.6,0.2,0.9,0.4
	c0.2,0.2,0.4,0.5,0.4,0.9l0.2,2.7l0.2,2.7H398.7z M-104.1,369.1c-1.1-0.4-2.5-0.7-4.1-0.7c-2.6,0-4.1,1.1-4.1,2.8v0.1
	c0,1.7,1.5,2.7,3.5,2.7c2.7,0,4.8-1.6,4.8-3.8C-104.1,370.2-104.1,369.1-104.1,369.1z M-104.2,376.8v-2.3c-1.2,1.5-3.1,2.6-5.8,2.6
	c-3.4,0-6.4-2-6.4-5.6v-0.1c0-4.1,3.1-6,7.3-6c2.2,0,3.6,0.3,5,0.8v-0.3c0-2.5-1.6-3.9-4.4-3.9c-2,0-3.5,0.4-5.1,1.1l-1.1-3.4
	c2-0.9,3.9-1.5,6.8-1.5c5.3,0,7.9,2.8,7.9,7.7v10.8C-100.2,376.8-104.2,376.8-104.2,376.8z M-95.3,358.5h4.1v2.8
	c1.2-1.7,2.8-3.2,5.6-3.2c4,0,6.4,2.8,6.4,7v11.6h-4.1v-10.4c0-2.8-1.4-4.5-3.8-4.5c-2.4,0-4,1.7-4,4.5v10.3h-4.1
	C-95.3,376.8-95.3,358.5-95.3,358.5z M-51.7,366.4c-0.3-2.7-1.8-4.8-4.6-4.8c-2.5,0-4.3,2-4.7,4.8H-51.7z M-65,367.7L-65,367.7
	c0-5.3,3.6-9.6,8.8-9.6c5.7,0,8.6,4.6,8.6,9.8c0,0.4,0,0.8-0.1,1.2h-13.2c0.4,3,2.5,4.6,5.2,4.6c2,0,3.4-0.8,4.9-2.2l2.4,2.2
	c-1.7,2.1-4,3.4-7.3,3.4C-61,377.2-65,373.4-65,367.7z M-39.5,367.5l-6.4-9h4.5l4.1,6l4.1-6h4.4l-6.4,8.9l6.6,9.4h-4.5l-4.4-6.4
	l-4.4,6.4h-4.4L-39.5,367.5z M-10.5,367.7L-10.5,367.7c0-3.6-2.3-5.9-5.1-5.9c-2.8,0-5.2,2.4-5.2,5.9v0.1c0,3.5,2.4,5.9,5.2,5.9
	C-12.8,373.5-10.5,371.3-10.5,367.7z M-24.8,358.5h4.1v3c1.3-1.9,3.2-3.4,6.1-3.4c4.2,0,8.4,3.4,8.4,9.5v0.1c0,6.1-4.1,9.5-8.4,9.5
	c-3,0-4.8-1.5-6.1-3.2v8.4h-4.1V358.5z M10.2,366.4c-0.3-2.7-1.8-4.8-4.6-4.8c-2.5,0-4.3,2-4.7,4.8H10.2z M-3.1,367.7L-3.1,367.7
	c0-5.3,3.6-9.6,8.8-9.6c5.7,0,8.6,4.6,8.6,9.8c0,0.4,0,0.8-0.1,1.2H1c0.4,3,2.5,4.6,5.2,4.6c2,0,3.4-0.8,4.9-2.2l2.4,2.2
	c-1.7,2.1-4,3.4-7.3,3.4C0.9,377.2-3.1,373.4-3.1,367.7z M18.4,358.5h4.1v4.1c1.1-2.7,3.2-4.6,6.4-4.5v4.4h-0.2
	c-3.6,0-6.1,2.4-6.1,7.2v7h-4.1C18.4,376.8,18.4,358.5,18.4,358.5z M32.7,358.5h4.1v18.3h-4.1C32.7,376.8,32.7,358.5,32.7,358.5z
	 M32.5,351.7h4.4v4h-4.4V351.7z M54.4,366.4c-0.3-2.7-1.8-4.8-4.6-4.8c-2.5,0-4.3,2-4.7,4.8H54.4z M41.2,367.7L41.2,367.7
	c0-5.3,3.6-9.6,8.8-9.6c5.7,0,8.6,4.6,8.6,9.8c0,0.4,0,0.8-0.1,1.2H45.3c0.4,3,2.5,4.6,5.2,4.6c2,0,3.4-0.8,4.9-2.2l2.4,2.2
	c-1.7,2.1-4,3.4-7.3,3.4C45.2,377.2,41.2,373.4,41.2,367.7z M62.7,358.5h4.1v2.8c1.2-1.7,2.8-3.2,5.6-3.2c4,0,6.4,2.8,6.4,7v11.6
	h-4.1v-10.4c0-2.8-1.4-4.5-3.8-4.5c-2.4,0-4,1.7-4,4.5v10.3h-4.1C62.7,376.8,62.7,358.5,62.7,358.5z M82.7,367.8L82.7,367.8
	c0-5.3,3.9-9.6,9.3-9.6c3.4,0,5.5,1.3,7.2,3.2l-2.5,2.8c-1.3-1.4-2.6-2.3-4.7-2.3c-3,0-5.2,2.6-5.2,5.8v0.1c0,3.3,2.2,5.9,5.4,5.9
	c1.9,0,3.4-0.9,4.7-2.3l2.5,2.5c-1.8,2-3.8,3.4-7.3,3.4C86.7,377.2,82.7,372.9,82.7,367.8z M114.9,366.4c-0.3-2.7-1.8-4.8-4.6-4.8
	c-2.5,0-4.3,2-4.7,4.8H114.9z M101.6,367.7L101.6,367.7c0-5.3,3.6-9.6,8.8-9.6c5.7,0,8.6,4.6,8.6,9.8c0,0.4,0,0.8-0.1,1.2h-13.2
	c0.4,3,2.5,4.6,5.2,4.6c2,0,3.4-0.8,4.9-2.2l2.4,2.2c-1.7,2.1-4,3.4-7.3,3.4C105.6,377.2,101.6,373.4,101.6,367.7z M132.7,381.3
	l1.4-3.1c0.7,0.4,1.6,0.7,2.4,0.7c1.2,0,1.9-0.5,2.5-2.1l-7.5-18.3h4.4l5.1,13.6l4.7-13.6h4.3l-7.1,18.8c-1.4,3.7-3,5.1-5.9,5.1
	C135.2,382.4,134,382,132.7,381.3z M166.5,367.8L166.5,367.8c0-3.3-2.3-6-5.5-6c-3.3,0-5.4,2.6-5.4,5.8v0.1c0,3.2,2.3,5.9,5.5,5.9
	C164.4,373.6,166.5,370.9,166.5,367.8z M151.5,367.8L151.5,367.8c0-5.3,4.1-9.6,9.6-9.6c5.5,0,9.5,4.3,9.5,9.5v0.1
	c0,5.2-4.1,9.5-9.6,9.5C155.6,377.2,151.5,372.9,151.5,367.8z M174.6,370.1v-11.6h4.1v10.4c0,2.8,1.4,4.5,3.8,4.5c2.4,0,4-1.7,4-4.5
	v-10.3h4.1v18.3h-4.1V374c-1.2,1.7-2.8,3.2-5.6,3.2C177,377.2,174.6,374.4,174.6,370.1z M194.6,360.5c2.1-0.4,3.1-1.5,2.9-3.3h-1.7
	v-4.7h4.5v4.1c0,3.8-1.8,5.5-5.2,5.8C195.1,362.3,194.6,360.5,194.6,360.5z M205.2,351.5h4.1v25.3h-4.1
	C205.2,376.8,205.2,351.5,205.2,351.5z M215,351.5h4.1v25.3H215C215,376.8,215,351.5,215,351.5z M234.9,351.5h4.1v25.3h-4.1
	C234.9,376.8,234.9,351.5,234.9,351.5z M258.4,367.8L258.4,367.8c0-3.3-2.3-6-5.5-6c-3.3,0-5.4,2.6-5.4,5.8v0.1
	c0,3.2,2.3,5.9,5.5,5.9C256.2,373.6,258.4,370.9,258.4,367.8z M243.3,367.8L243.3,367.8c0-5.3,4.1-9.6,9.6-9.6
	c5.5,0,9.5,4.3,9.5,9.5v0.1c0,5.2-4.1,9.5-9.6,9.5C247.4,377.2,243.3,372.9,243.3,367.8z M263.9,358.5h4.4l4.8,13.4l4.9-13.4h4.3
	l-7.3,18.4h-3.7L263.9,358.5L263.9,358.5z M297.1,366.4c-0.3-2.7-1.8-4.8-4.5-4.8c-2.5,0-4.3,2-4.7,4.8H297.1z M283.8,367.7
	L283.8,367.7c0-5.3,3.6-9.6,8.8-9.6c5.7,0,8.6,4.6,8.6,9.8c0,0.4,0,0.8-0.1,1.2h-13.2c0.4,3,2.5,4.6,5.2,4.6c2,0,3.4-0.8,4.9-2.2
	l2.4,2.2c-1.7,2.1-4,3.4-7.3,3.4C287.8,377.2,283.8,373.4,283.8,367.7L283.8,367.7z"/>
</svg>
