<svg xmlns="http://www.w3.org/2000/svg" xml:space="preserve" viewBox="0 0 613.45401 613.45398"><path fill="#fff" d="M551.35199 253.01399c-24.935-113.935-127.099-196.287-244.187-196.287-117.088 0-219.282 82.352-244.246 196.287h-62.919v107.587h62.977c25.016 113.832 127.18 196.126 244.188 196.126 116.971 0 219.121-82.294 244.158-196.127h62.131v-107.586Zm-244.187 208.364c-64.962 0-122.524-40.267-144.979-100.778h290.001c-22.483 60.511-80.068 100.778-145.022 100.778m-145.052-208.364c22.396-60.598 79.995-100.938 145.051-100.938 65.056 0 122.656 40.34 145.059 100.938z"/><path fill="#734fa0" d="M307.16499 556.72699c-117.007 0-219.172-82.286-244.188-196.127h-62.977v-107.586h62.919c24.964-113.935 127.158-196.287 244.246-196.287 117.088 0 219.252 82.352 244.188 196.287h62.101v107.587h-62.131c-25.037 113.84-127.187 196.126-244.158 196.126m-299.094-204.197h61.467l.657 3.218c23.009 111.775 122.67 192.901 236.97 192.901 114.264 0 213.91-81.126 236.941-192.901l.657-3.218h60.62v-91.444h-60.591l-.656-3.226c-22.937-111.871-122.591-193.062-236.971-193.062-114.373 0-214.064 81.192-237.029 193.069l-.664 3.218h-61.401Zm299.094 116.927c-70.333 0-132.42-44.865-154.494-111.629l-1.752-5.298h312.55l-1.751 5.305c-22.126 66.764-84.235 111.622-154.553 111.622m-144.979-108.857c22.454 60.51 80.017 100.778 144.979 100.778 64.955 0 122.539-40.267 145.023-100.778zm301.305-99.515h-312.638l1.744-5.298c22.024-66.859 84.14-111.775 154.567-111.775s132.544 44.916 154.576 111.775zm-301.378-8.071h290.11c-22.403-60.598-80.002-100.931-145.059-100.931s-122.655 40.333-145.051 100.931"/><g fill="#734fa0"><path d="M157.58199 328.75399c-5.174 3.299-11.092 4.955-17.755 4.955-7.852 0-14.376-2.598-19.572-7.801-5.203-5.196-7.808-11.632-7.808-19.309 0-7.495 2.642-13.807 7.918-18.93 5.276-5.13 11.836-7.692 19.689-7.692 5.933 0 11.778 1.532 17.529 4.583v10.187c-5.524-3.685-11.078-5.532-16.66-5.532-5.298 0-9.662 1.664-13.099 4.984-3.43 3.32-5.145 7.502-5.145 12.552s1.656 9.246 4.977 12.588c3.32 3.342 7.604 5.013 12.851 5.013 5.933 0 11.625-1.926 17.076-5.787v10.189zM211.54599 332.72399h-11.019l-3.714-9.917h-21.243l-3.744 9.917h-10.829l19.842-51.725h10.603zm-18.214-19.083-7.232-19.083-7.122 19.083zM240.85299 304.32999c3.583.752 6.341 2.284 8.275 4.575 1.927 2.299 2.897 5.064 2.897 8.297-.029 4.539-1.642 8.268-4.846 11.165-3.211 2.904-7.779 4.356-13.712 4.356h-16.813v-51.724h15.186c5.101 0 9.078 1.153 11.924 3.452 2.853 2.291 4.284 5.437 4.284 9.428 0 2.547-.62 4.736-1.861 6.568-1.233 1.832-3.014 3.124-5.334 3.883m-14.121-3.182h4.575c2.072 0 3.714-.504 4.926-1.518 1.212-1.007 1.817-2.386 1.817-4.123 0-1.795-.577-3.204-1.722-4.225-1.153-1.022-2.722-1.533-4.714-1.533h-4.882zm0 22.79h6.735c2.627 0 4.67-.584 6.137-1.759 1.46-1.167 2.189-2.831 2.189-4.977 0-2.423-.759-4.24-2.284-5.451-1.532-1.212-3.824-1.817-6.874-1.817h-5.904v14.004zM269.85999 323.25899h21.579v9.465h-31.657v-51.724h10.078zM329.60399 289.97599h-22.031v10.793h18.171v9.085h-18.171v13.632h23.965v9.238h-34.042v-51.724h32.108zM401.85699 328.75399c-5.181 3.299-11.1 4.955-17.762 4.955-7.852 0-14.376-2.598-19.572-7.801-5.203-5.196-7.808-11.632-7.808-19.309 0-7.495 2.642-13.807 7.918-18.93 5.276-5.13 11.837-7.692 19.689-7.692 5.933 0 11.778 1.532 17.536 4.583v10.187c-5.532-3.685-11.085-5.532-16.668-5.532-5.298 0-9.662 1.664-13.099 4.984-3.43 3.32-5.145 7.502-5.145 12.552s1.657 9.246 4.977 12.588c3.313 3.342 7.604 5.013 12.858 5.013 5.926 0 11.618-1.926 17.076-5.787zM455.81399 332.72399h-11.019l-3.714-9.917h-21.243l-3.744 9.917h-10.829l19.842-51.725h10.603zm-18.214-19.083-7.232-19.083-7.122 19.083zM501.77999 332.72399h-11.85l-14.274-20.637h-4.656v20.637h-10.078v-51.724h16.74c5.4 0 9.684 1.357 12.858 4.072 3.16 2.715 4.743 6.393 4.743 11.041 0 3.182-.846 5.962-2.532 8.348-1.693 2.386-4.101 4.16-7.232 5.32zm-30.78-42.975v13.595h4.802c2.977 0 5.291-.642 6.932-1.912 1.642-1.277 2.459-3.029 2.459-5.247 0-1.992-.744-3.561-2.233-4.7-1.489-1.131-3.561-1.715-6.21-1.737h-5.75Z"/></g></svg>