<svg xmlns="http://www.w3.org/2000/svg" viewBox="0 0 128 128"><path fill="#006b3b" d="M105.44986 22.58946H39.47542c-1.8266 0-3.71026.35083-5.50285 1.1135-4.37013 1.89525-7.48581 5.67796-8.80127 10.05206l-.07627.3127c43.22537 14.81114 55.88882 48.87831 56.0078 59.04324v.7131c-.03447 4.13004-2.88291 9.14844-7.52364 11.63842H88.4782c1.87237 0 3.7487-.36608 5.50652-1.12113 4.36616-1.9105 7.4971-5.6743 8.81652-10.0673l14.712-54.76007c.30888-1.13639.46523-2.2537.49574-3.53881.08786-7.3522-5.49126-13.38495-12.5573-13.38495"/><path fill="#d91920" d="M73.72258 89.73536c.12203-11.76807-14.15891-24.2799-21.22128-30.75105-1.2851-1.02199-2.41006-1.92194-3.31001-2.53208-1.52916 1.75796-11.55056 4.008-30.05702.01525l-.08024.2288-9.00322 33.58821c0 .02746-.02746.02746-.02746.02746 19.57024 11.77204 63.54608 18.36521 63.69862-.57582"/></svg>