<svg xmlns="http://www.w3.org/2000/svg" viewBox="0 0 820 820"><g fill="#006a6a"><path d="M324.3 379.5 147.7 397 28.8 633c94.4 0 142.5-8.7 197.5-87.4 36-53.4 68.7-108.9 98-166.1zM802.4 160.9l14-26.2H444.1c-125.9 0-190.6 42.8-229.9 121.5l-30.6 62.1h169.5C412.6 202.9 486 163.5 665.2 160.9z"/><path d="M791.1 186.3c-227.3 1.7-264.9 39.3-315.6 132h250.9z"/><path fill="#e31936" d="M550.8 511.4c-14.8 83.9-80.5 149.5-164.4 164.3-27.4 4.8-55.2 7.7-83 8.7-33.2.9-299.8.9-299.8.9L15 661.7s101.4-.9 115.4-.9c33-.5 66-2.9 98.8-7 69.6-5.9 128-54.8 145.9-122.4l20.1-68.2c11.4-57.7 61.8-99.4 120.6-99.7l194.1-12.2-9.6 19.2-59.4 3.5c-44.4 3.4-80 37.9-84.8 82.2z"/></g></svg>
