<svg xmlns="http://www.w3.org/2000/svg" viewBox="0 0 504 329" xml:space="preserve"><style>.st0{fill:#0071b7}</style><path d="M252 312c-115 0-209-66.2-209-147S136.7 18 252 18s209 66.2 209 147-93.7 147-209 147m0-312C113 0 0 73.2 0 165s113 165 252 165 252-74 252-165S391 0 252 0" class="st0"/><path d="M263 251h-27.6c-8.7 0-13.4-3.9-13.4-11v-63c0-3.9 1.6-5.5 5.5-5.5H263c22.3 0 40.5 17.9 40.9 40.2.3 21.5-16.9 39.1-38.4 39.4-.8 0-1.6 0-2.5-.1M222.1 90c0-7.1 4.7-11 13.4-11h18.1c18.7-.8 34.6 13.7 35.4 32.4v1.5a35.1 35.1 0 0 1-35.4 34.6h-26c-3.9 0-5.5-1.6-5.5-5.5V90zm111 70.1c-5.5-2.4-5.5-3.2 0-6.3a46.42 46.42 0 0 0 22-40.9c0-30.7-40.9-61.4-106-61.4-37.8-.2-74.5 12-105 34.6-5.5 4.7-4.7 7.1-3.1 8.7l9.5 11c3.1 3.2 4.7 2.4 6.3.8 7.1-5.5 7.9-2.4 7.9 3.9v109c0 6.3-.8 9.5-7.9 3.9-1.6-1.6-3.1-2.4-6.3.8L140.3 236c-1.6 2.4-3.1 4.7 3.2 8.7a194.1 194.1 0 0 0 107 33.9c73.2 0 119-30.7 119-71.7.6-27.6-22.2-41-36.4-46.5" class="st0"/></svg>