<svg xmlns="http://www.w3.org/2000/svg" viewBox="0 0 309.74 78.53"><path fill="#4562a2" d="M82.33.67c-10.74 2.85-37 11-37 19.85 0 14.87 29.58 22.35 41.3 24.16L53.1 78.53S47.79 76.4 44.63 75C26.49 66.77 0 51 0 34 0 10.07 66.7 1.5 85 0ZM171.49 44.49h19.68V2.27h-19.24l-19.58 20.46V2.27h-20.62L89.98 44.49h25.84L134 23.69v20.8h17.97l19.52-20.98v20.98zM260.16 2.27h-24.01l-17.1 26v-26H200V44.5h26.65l33.51-42.23zM309.74 14.72V2.27h-14.47c-8.07 0-19.93 1.8-26.84 5.36a39.66 39.66 0 0 0-16.71 15.92c-2 3.63-3.59 8.06-3.59 11.92 0 6 4.32 9 11.23 9h50.38V21.94h-19.09V32.8h-16.57c-2.46 0-3.9-.8-3.9-2.79a9.38 9.38 0 0 1 .61-3.31c2.29-6.74 10.87-12 22-12Z" class="cls-1"/></svg>
