<svg xmlns="http://www.w3.org/2000/svg" viewBox="0 0 100 100"><path fill="#240c4b" d="M28.3 78.13a.65.65 0 0 1-.65-.65c0-.21.1-.4.25-.52l13.23-9.76H6.38a.65.65 0 0 1-.66-.65c0-.22.11-.42.28-.54l18.18-13.4a.69.69 0 0 1 .46-.19h14.1c3.16.12 4.84.46 5.82 1.1a4.25 4.25 0 0 1 1.75 2.29c1.57 4.32 3.6 18.07 3.7 18.74.1-.67 2.12-14.42 3.69-18.74.23-.6.57-1.5 1.76-2.29.97-.64 2.66-.98 5.82-1.1h34.56c.36 0 .66.3.66.66 0 .22-.12.42-.3.54L63.24 78a.68.68 0 0 1-.39.13z"/><path fill="#e3000f" d="M93.66 32.8c.36 0 .65.29.65.65 0 .22-.11.42-.27.54l-18.3 13.47a.7.7 0 0 1-.38.11H61.27c-3.16-.11-4.85-.45-5.82-1.09a4.25 4.25 0 0 1-1.75-2.29c-1.58-4.32-3.6-18.07-3.7-18.74-.1.67-2.13 14.42-3.7 18.74-.22.6-.57 1.5-1.75 2.29-.98.64-2.66.98-5.82 1.09l-34.58.01a.65.65 0 0 1-.42-1.14l1.05-.78 31.98-23.65a.64.64 0 0 1 .41-.14h34.55c.36 0 .65.29.65.66 0 .21-.1.4-.26.52L58.87 32.8z"/></svg>
