<svg xmlns="http://www.w3.org/2000/svg" version="1.0" viewBox="0 0 500 500"><path fill="#9c4c16" d="m46.75 435.78-28.26-.3-.37-6.67c-.42-7.47.74-9.33 5.09-8.24 4.23 1.06 61.77.93 62.84-.14.53-.53-1.92-2.26-5.56-3.93a33.45 33.45 0 0 1-17.24-18.6l-2.07-5.77-13.12-.31c-8.81-.21-13.4-.76-13.98-1.65-.46-.74-.85-7.64-.86-15.34l-.02-14h37.24l4.6-7.86c6.58-11.28 6.57-11.3-4.21-11.67-10.47-.37-10.36-.27-13.63-12.84-3.99-15.38-3.73-37.2.6-49.73l1.42-4.1 40.42-1.1.54-12.63c.51-11.7.71-12.63 2.75-12.64 2.02-.02 2.17-.63 1.83-7.77-.44-9.12.94-15.04 4.67-20.1 2.56-3.47 2.67-4.2 2.08-14.79-.7-12.8.23-17.32 5.39-25.92 6.89-11.49 18.98-17.97 33.53-17.97h7.97l1.2-4.48c2.66-9.88 9.39-18.44 18-22.9 6.67-3.47 20.17-3.91 27.98-.93l6.01 2.3 5.08-5.01 5.09-5.01-.54-10.3c-.9-17.3 3.3-28.2 15.24-39.46 9.02-8.5 16.4-11.66 29.02-12.4 16.1-.96 29.04 4.17 40.26 15.94 10.46 10.96 14.4 21.43 14.35 38.06l-.04 11 4.42 4.97a55.65 55.65 0 0 1 7.28 11.01c3.82 8.12 4.07 23.06.5 30.89-3.16 6.94-9.56 13.73-16.22 17.22-4.87 2.56-6.84 2.93-15.99 2.94-9.24.01-11.15-.34-16.73-3.08-6.19-3.04-8.53-3.12-8.53-.3 0 2.78-7.81 11.61-12.93 14.62-4.57 2.69-6.3 3.05-14.52 3.05-9.28 0-11.81-.71-18.74-5.27-2.7-1.78-2.96-1.75-6.56.91-5.34 3.94-11.34 5.26-20.27 4.47l-7.69-.69-2.03 4.97c-5.2 12.7-22.33 17.4-33.75 9.27-1.64-1.17-3.49-2.13-4.1-2.13-1.29 0-19.96 23.63-19.96 25.26 0 1.04 1.61 1.56 3.68 1.19 3.06-.55 4 2.69 4 13.8 0 8.18.4 11.55 1.38 11.86 2.11.67 59.38 1.53 61 .92.8-.3 2.59-3.13 3.99-6.3 4.09-9.25 12.22-13.16 23.13-11.11 5 .94 12.1 7.25 13.75 12.23.69 2.08 2.16 4.27 3.28 4.87 2.94 1.57 75.4 1.46 76.37-.11.41-.67.66-6.36.56-12.65-.13-8.5.19-11.58 1.25-11.98l116.55 1.12.31 11.26.32 11.25h-20.82c-2.31 0-4.45 1.04-6.63 3.22l-3.22 3.22.62 15.72c.34 8.65 1.02 26.99 1.51 40.75.49 13.76 1.24 25.37 1.67 25.8.43.43 11.25 1.03 24.03 1.34l23.25.55v29.56l-24.81-.33c-21.92-.29-25.02-.11-26.63 1.5-1 1-1.82 2.54-1.82 3.43 0 5.78-9.48 16.97-17.32 20.43-2.87 1.28-4.47 2.57-3.9 3.15.55.55 25.17 1.11 55.3 1.27l34.99.28.32 6.87.33 6.86-184.15-.26c-111.9-.15-224.3-.4-249.77-.56zm231.94-14.8c.44-.44-.14-1.12-1.28-1.5-10.25-3.5-19.92-12.1-22.46-19.98-2.21-6.86-2.1-6.82-18.76-6.82h-15.26l-1.2 3.02c-3.22 8.18-4.46 10.39-8.14 14.46-2.2 2.43-6.73 5.71-10.1 7.3-3.35 1.59-5.57 3.2-4.93 3.6 1.61.99 81.14.9 82.13-.08zm94.34.3c.35-.56-1.72-2.07-4.6-3.34-2.89-1.28-6.67-3.65-8.42-5.28-4.04-3.78-9.46-12.16-9.46-14.63 0-4.55-2.7-5.35-18.06-5.35-15.93 0-15.9-.02-18.09 6.78-2.33 7.22-8.22 13.62-16.13 17.52-5.83 2.86-6.87 3.74-5.22 4.38 3.1 1.22 79.22 1.15 79.98-.07zm-191.59-1c0-.52-2.21-1.8-4.93-2.83-6.4-2.45-13.7-9.63-16.8-16.54a162 162 0 0 0-3.3-7c-.64-1.16-4.15-1.48-15.52-1.41-8.09.05-15.03.48-15.44.95-.41.48-1.58 3.15-2.6 5.92-2.6 7.09-8.5 13.53-15.56 16.98-3.3 1.61-6 3.37-6 3.9 0 .55 17.64.98 40.07.98 22.05 0 40.08-.43 40.08-.95z"/></svg>