<svg xmlns="http://www.w3.org/2000/svg" fill="none" viewBox="0 0 52 52"><g fill="#00a1ac"><path d="M31.28 26.76c2.1.54 4.01 1.11 5.71 1.69.7 1.36 1.34 2.63 1.96 3.95 1.17.03 2.37.03 3.53-.05-.34-.73-.68-1.4-1.03-2.14a19.2 19.2 0 0 1 3.29 1.83c2.61-.56 2.6-1.43 1.68-2.3-3.6-3.3-12.66-5.73-17.13-6.73l1.99 3.73v.02zm-22.7-2.23c.8-.16 1.62-.27 2.44-.32.58-1.06 1.16-2.12 1.76-3.16-3.12.08-4.68.6-5.4 1.03-.77.48-.42 1.3 1.2 2.45z"/><path d="M26.2 32.12c-3.86-.78-21.65-5.21-20.49-9.84-.35.74-.61 2.39-.7 3.09-.1.74.16 1.58.43 1.98.7 1.07 2.15 2.02 4.02 2.93-1.38 2.83-5.46 11.69-5.6 16.2-.05 1.82.38 1.91 1.65 1.11a11.5 11.5 0 0 0 1.4-1.15c.81-4.75 4.09-11.8 5.54-14.86 1.82.7 3.66 1.35 5.53 1.89-1.68 2.87-6.63 10.88-10.5 14.27-2.06 1.79-3.04 1.89-3.77 1.55.26.33 1.65 1.1 2.11 1.31.85.4 1.5.54 2.29.23 4.02-1.58 10.62-11.94 13.18-16.46 3.44.94 6.54 1.55 10.26 2.02 1.98 3.05 6.72 10.49 10.51 13.54 1.5 1.2 2.33 1.26 3.4.75 1.04-.5 1.6-.92 2.12-1.35-.37.1-.98.1-2.02-.53-3.48-2.13-8.76-10.38-9.8-11.93 1.8.17 3.53.2 5.33.12a55.5 55.5 0 0 1 3.16 8.94c.53.53 1.24 1.3 2.35 1.96.6.35.79.19.83-.46.16-2.84-2.19-8.58-3.06-10.74 1.87-.39 2.8-1.11 3.23-2.29.25-.7.7-2.43.69-3.27-1.08 4.87-19.06 1.62-22.11 1.01l.01-.02z"/><path d="M11.51 26.16c.99.47 2.01.89 3.02 1.29.58-1.1 1.12-2.12 1.73-3.2 1.54.1 3.17.28 4.87.5.49-.98.98-1.98 1.44-3a71.81 71.81 0 0 0-4.55-.52 99.31 99.31 0 0 1 3.1-4.85 110.75 110.75 0 0 0 1.94 4.32 80.69 80.69 0 0 0 1.7-4.03c-1.5-3.48-3.5-8-4.2-12.08-.18-1.11-.35-2.88.68-3.59a14.1 14.1 0 0 0-2.62 1.45 2.63 2.63 0 0 0-1 2.01c-.08 2.13 1.02 5.49 2.05 8.33a109.23 109.23 0 0 0-8.18 13.38l.02-.01z"/><path d="M28.72 7.59C28.4 12 24.88 20.95 20.29 29.3c.95.29 2.24.62 3.24.85a111.52 111.52 0 0 0 2.14-4.21c.94 1.8 1.86 3.5 2.86 5.27 1.36.25 2.76.46 4.14.65a189.98 189.98 0 0 1-5.28-9.65 85.21 85.21 0 0 0 2.47-6.2c1.3 2.05 2.68 4.3 4.12 6.84 1.49.41 2.95.86 4.41 1.37a144.79 144.79 0 0 0-7.33-12.2c.3-1.24.57-2.56.5-3.86-.05-.77-.3-1.6-.97-2.1a13.63 13.63 0 0 0-2.63-1.46c.83.69.83 2.01.76 2.99v-.02z"/><path d="M23 8.61c.18.56 1.06 2.93 1.28 3.48.58-.72 1.1-1.34 1.59-1.88l.77 1.05c.3-1.04.78-2.96.8-4.05 0-1.78-.3-2.1-1.84-1.02-.97.69-1.8 1.55-2.58 2.42h-.01zm-.82-2.84c.26.28.54.57.83.9a10.9 10.9 0 0 1 2.45-1.97 13.26 13.26 0 0 0-2.5-2.25c-.9-.57-1.2-.61-1.17.84.03.7.24 1.8.4 2.49z"/></g></svg>