<svg xmlns="http://www.w3.org/2000/svg" xml:space="preserve" viewBox="0 0 153 137.5"><linearGradient id="a" x1="76.52" x2="76.52" y1="0" y2="137.54" gradientUnits="userSpaceOnUse"><stop offset="0" stop-color="#ef4357"/><stop offset=".48" stop-color="#ba2c3b"/><stop offset=".98" stop-color="#921a24"/><stop offset="1" stop-color="#921a24"/></linearGradient><path fill="url(#a)" d="M47.3 0c-6.8 0-12.1 3-15.5 9L2.5 59.8c-.4.8-.8 1.5-1.1 2.2C.5 64.1 0 66.1 0 68.2v1.1c.1 2.8.9 5.6 2.5 8.4l29.2 50.8c3.3 5.7 8.2 8.7 14.5 9h60.3c6.4-.3 11.2-3.3 14.5-9l29.3-50.8c1.7-3 2.6-5.9 2.6-8.9a18.8 18.8 0 0 0-2.5-9L121.2 9c-3.4-6-8.7-9-15.5-9H47.3z"/><path fill="#FFF" d="M61.5 47.5c0-8.1 11.5-8.5 17.2-8.5 10.6 0 23.2 1.6 30.6 2.2V27.7c-7.9-.9-20.4-2.4-29.8-2.4-14.1 0-40.8 3.1-40.8 25.9 0 34 51 16.8 51 35.6 0 10.4-15.9 10.4-22.9 10.4-10.6 0-20.6-1.8-29.5-3.1v14.4c10.7 1.5 23.2 3.1 35.3 3.1 19.8 0 41.2-6.6 41.2-27.6 0-35.2-52.3-18.6-52.3-36.5"/></svg>
