<svg xmlns="http://www.w3.org/2000/svg" version="1.0" viewBox="0 0 1024 1235"><path fill="#4bc0ad" d="M524.32 4.44 406.28 137.05h20.21l27.2-30.6h80.42l16.5 30.58h45.29L524.32 4.43zM503.3 50.59l24.43 44.39h-63.82l39.39-44.39zM313.47 73.57h-37.99l56.07 63.45h51.39L330.9 81.58c71.86 0 68.1-41.45 68.1-41.45C399 6.63 343.12 8 343.12 8h-97.46l-23.19 129.02h41.48L285.2 18.88h40.46s27.11-.53 27.11 22.66c0 0 .55 32.1-39.31 32.03M710.04 20.8h69.73l1.8-12.8H598.92l-1.77 12.83h69.67l-20.97 116.2h43.22L710.04 20.8M912.36 8h-98.12l-23.18 129.03h41.5l9.6-52.74h56.85c71.89 0 68.56-44.16 68.56-44.16 0-31.41-49.07-32.17-55.2-32.14zM853.8 18.86h40.49s27.08-.52 27.08 22.67c0 0 .55 31.09-39.29 31.04H844.3l9.5-53.7zM346.49 426.82c57.34-60.89 139.25-102.8 229.48-102.8 173.62 0 314.38 139.07 314.38 312.71 0 115.76-63.75 231.75-156.94 286.28-13.12 44.26-22.12 77.72-26.44 133.87 182.65-55.32 313.68-219.44 313.68-420.15 0-245.61-197.4-436.35-443.02-436.35-140.18 0-262.68 63.2-344.2 164.54 0 0 64.66 18.21 113.14 61.58m-72.05 124.71c-9.47 30-12.1 52.4-12.1 85.52 0 179.84 142.95 316.9 316.57 316.9-9.73 39.73-15.04 71.14-19.05 116.72-33.48-.39-66.14-2.75-97.49-10.27-191.52-45.85-334.93-216.97-331.21-423.35.96-52.03 6.55-96.63 25.37-143.33 0 0 66.91 4.81 117.91 57.81"/><path fill="#004fa3" d="M571.5 537.89s3.4 32.2 6.1 53.02c0 0 .27 6.38 9.2 8.93l24.35 7.83s17.87 5.6 15.66 24.01l-2.55 29.04s9.44-14.62 24.8-13.79c0 0 20.6 2.47 20.18 23.29 0 0-1.66 21.77 5.31 27.94 0 0 5.31 10.88 37.42 13.97 14.51 1.1 25.99 8.64 25.99 8.64 24.01 18.7 7.26 49.18 7.26 49.18s-46.84 101.1-67.36 197.34c0 0-43.09 152.37-3.15 263.52h-56.3c-60.89-186.55 62.13-443.59 62.13-443.59s13.84-25.4-4.6-28.72c-6.67-1.25-7.84-1.43-15.93-2.94 0 0-30.63-1.8-23.73-39.65 5.02-27.71-17.88-14.13-17.88-14.13-24.56 13.14-26.25-6.4-26.25-6.4-1.1-10.07-2.8-26.26-2.8-26.26-1.1-10.61-7.24-11.44-7.24-11.44l-27.27-5.78c-20.3-4.97-20.76-23.57-20.76-23.57l-3.93-48c-.55-21.47-21.52-15.1-21.52-15.1-12.28 3.33-52.19 9.21-52.19 9.21s-23.23 6.14-58.6-2.08c-26.56-7.3-60.28-25-99.49-58.54-37.96-33.77-87.65-52.22-87.65-52.22C109.04 427.54 4.97 471.98 4.97 471.98v-58.67s87.3-46.93 210.18-9.52c0 0 61.45 14.26 128.45 72.36 0 0 21.96 19.22 48.4 32.62 0 0 25.96 15.88 66.08 10.28 48.86-7.5 77.72-8.66 77.72-8.66s33.69-3.75 35.7 27.5"/></svg>
